<svg width="108" height="108" viewBox="0 0 108 108" fill="none" xmlns="http://www.w3.org/2000/svg">
<path d="M49.7559 31.9947L52.2557 26.4587C52.6162 25.6602 53.2031 24.9849 53.9436 24.5166C54.6842 24.0482 55.5458 23.8074 56.4218 23.8238L63.5978 23.9595C64.223 23.9712 64.8376 23.7973 65.364 23.4597C65.8904 23.1221 66.3048 22.636 66.5549 22.0629L69.3639 15.6213C69.5361 15.2268 69.5647 14.7844 69.4448 14.3709C69.325 13.9574 69.0642 13.5989 68.7078 13.3576C68.5518 13.2519 68.3747 13.1815 68.1888 13.1514C68.0028 13.1213 67.8125 13.1321 67.6312 13.1832C67.4499 13.2342 67.2819 13.3243 67.139 13.447C66.9961 13.5697 66.8817 13.7221 66.8038 13.8936L64.4907 18.9817C64.2327 19.5493 63.8125 20.0279 63.2831 20.3572C62.7537 20.6866 62.1387 20.852 61.5155 20.8327L54.0277 20.5996C53.048 20.5691 52.0853 20.8608 51.2874 21.43C50.4895 21.9993 49.9004 22.8146 49.6105 23.7508L47.6096 30.2132" fill="#9D6249"/>
<path d="M48.8771 31.5012L51.4731 26.0095C51.9135 25.0777 52.6177 24.2955 53.4983 23.7598C54.3789 23.2242 55.3973 22.9587 56.4274 22.9961L63.5996 23.2569C64.5582 23.2916 65.4435 22.7453 65.8423 21.8731L68.7636 15.4819C68.8658 15.2582 68.8865 15.0057 68.8221 14.7683C68.7578 14.5309 68.6124 14.3235 68.4112 14.182C68.3511 14.1398 68.2826 14.1113 68.2105 14.0983C68.1383 14.0854 68.0641 14.0884 67.9932 14.107C67.9223 14.1257 67.8563 14.1596 67.7998 14.2064C67.7433 14.2532 67.6977 14.3117 67.6662 14.3779L65.2644 19.4244C64.9293 20.1282 64.3937 20.7172 63.7247 21.1172C63.0558 21.5173 62.2835 21.7107 61.505 21.6729L54.0227 21.3094C53.2164 21.2703 52.4195 21.4967 51.7543 21.9539C51.089 22.4112 50.5922 23.0741 50.3399 23.8409L48.2265 30.2669C48.161 30.466 48.0191 30.6309 47.8321 30.7254C47.645 30.8199 47.428 30.8362 47.2289 30.7708C47.0298 30.7053 46.8649 30.5634 46.7704 30.3764C46.6759 30.1893 46.6596 29.9723 46.725 29.7732L48.8387 23.347C49.1989 22.2517 49.9084 21.3048 50.8586 20.6516C51.8087 19.9985 52.9469 19.6751 54.0985 19.7311L61.5811 20.0946C62.0482 20.1173 62.5116 20.0014 62.913 19.7614C63.3144 19.5213 63.6357 19.1679 63.8367 18.7456L66.239 13.6989C66.3694 13.425 66.5579 13.1829 66.7915 12.9895C67.0251 12.796 67.298 12.6558 67.5914 12.5787C67.8847 12.5016 68.1913 12.4895 68.4898 12.5431C68.7883 12.5967 69.0715 12.7148 69.3197 12.8891C69.8228 13.2428 70.1864 13.7614 70.3474 14.3549C70.5083 14.9485 70.4566 15.5797 70.2011 16.1391L67.2798 22.5306C66.9548 23.2416 66.4262 23.8401 65.761 24.2506C65.0957 24.6611 64.3236 24.865 63.5425 24.8366L56.3699 24.5758C55.6489 24.5495 54.9361 24.7354 54.3196 25.1104C53.7032 25.4853 53.2104 26.0329 52.9021 26.6852L50.3061 32.1769C50.2618 32.2707 50.1994 32.3549 50.1225 32.4246C50.0456 32.4943 49.9557 32.5482 49.858 32.5832C49.7603 32.6181 49.6566 32.6335 49.5529 32.6284C49.4493 32.6234 49.3476 32.5979 49.2538 32.5536C49.16 32.5092 49.0758 32.4468 49.0061 32.3699C48.9364 32.293 48.8825 32.2031 48.8475 32.1054C48.8125 32.0077 48.7971 31.904 48.8022 31.8004C48.8073 31.6967 48.8328 31.595 48.8771 31.5012Z" fill="#524F75"/>
<path d="M60.3865 21.7257C60.9649 19.7877 61.369 18.2749 61.5974 17.187C61.7491 16.4668 61.9143 15.2678 62.095 13.5893C62.1557 13.1728 62.0498 12.7491 61.8002 12.4101C61.5507 12.0711 61.1776 11.8441 60.7619 11.7783C60.3455 11.7124 59.9198 11.8127 59.5767 12.0576C59.2335 12.3024 59.0003 12.6723 58.9272 13.0875C58.6725 14.6343 58.5136 15.783 58.4499 16.5338C58.3542 17.6691 58.2739 19.3497 58.2096 21.5755" fill="#9D6249"/>
<path d="M62.36 17.39C62.1071 18.499 61.6709 20.0242 61.0529 21.9708C60.9892 22.1706 60.8489 22.3368 60.6627 22.4332C60.4765 22.5295 60.2597 22.5479 60.0598 22.4845C59.8602 22.4208 59.694 22.2806 59.5976 22.0946C59.5012 21.9086 59.4826 21.692 59.5457 21.4922C60.1526 19.5838 60.5772 18.0973 60.8187 17.0384C60.9752 16.3535 61.1586 15.1787 61.3651 13.5279C61.4409 13.0608 61.1478 12.6473 60.7108 12.5703C60.4996 12.5331 60.2822 12.5804 60.1055 12.7019C59.9288 12.8234 59.807 13.0094 59.7661 13.2199C59.4898 14.7346 59.3131 15.8628 59.2393 16.5866C59.1255 17.7032 59.0167 19.3693 58.9148 21.5796C58.9022 21.7869 58.8086 21.9809 58.6541 22.1197C58.4997 22.2585 58.2968 22.3309 58.0894 22.3214C57.882 22.3118 57.6866 22.221 57.5456 22.0686C57.4045 21.9163 57.3291 21.7145 57.3356 21.5069C57.4389 19.2695 57.5495 17.5776 57.6667 16.4265C57.746 15.652 57.9275 14.488 58.2128 12.9273C58.4638 11.6339 59.6966 10.7868 60.9855 11.0138C61.6019 11.1226 62.151 11.469 62.5148 11.9783C62.8786 12.4877 63.0281 13.1194 62.9311 13.7378C62.7198 15.43 62.5307 16.6427 62.36 17.39Z" fill="#524F75"/>
<path d="M55.66 21.3152C55.5183 19.2466 55.4069 17.6582 55.3266 16.5503C55.2739 15.8157 55.1846 14.64 55.0592 13.0232C55.0029 12.6061 54.7845 12.228 54.4513 11.9708C54.1182 11.7137 53.697 11.5982 53.2793 11.6495C52.8608 11.7009 52.4792 11.9146 52.2167 12.2446C51.9542 12.5746 51.8318 12.9945 51.8758 13.4138C52.0328 14.885 52.1861 16.0003 52.336 16.7589C52.5525 17.8574 52.9498 19.528 53.5266 21.7707" fill="#9D6249"/>
<path d="M53.1555 12.4664C52.9443 12.5036 52.7561 12.6223 52.6316 12.797C52.5071 12.9716 52.4562 13.1881 52.4898 13.3999C52.7195 14.839 52.9274 15.924 53.1099 16.6465C53.3797 17.7144 53.8596 19.3494 54.549 21.546C54.6035 21.7436 54.5793 21.9547 54.4812 22.1347C54.3832 22.3148 54.2191 22.4497 54.0236 22.5111C53.828 22.5725 53.6162 22.5555 53.4329 22.4638C53.2496 22.3721 53.109 22.2127 53.0409 22.0194C52.3434 19.7964 51.8561 18.1367 51.5776 17.0335C51.3814 16.2564 51.1659 15.1306 50.9289 13.6484C50.8302 13.0271 50.9795 12.3919 51.3446 11.8797C51.7098 11.3675 52.2615 11.0192 52.881 10.9099C54.1699 10.6826 55.4019 11.5339 55.6448 12.8199L55.6516 12.8644C55.8613 14.4739 56.0122 15.644 56.1039 16.3765C56.2422 17.4797 56.4368 19.061 56.6866 21.1206C56.7118 21.3287 56.6534 21.5383 56.5241 21.7033C56.3948 21.8683 56.2053 21.9752 55.9972 22.0004C55.7891 22.0257 55.5795 21.9673 55.4145 21.838C55.2495 21.7087 55.1427 21.5192 55.1174 21.3111C54.9267 19.7313 54.7328 18.152 54.5355 16.573C54.4449 15.8476 54.2956 14.6878 54.0877 13.0947C54.044 12.8895 53.9223 12.7094 53.7484 12.5922C53.5744 12.475 53.3618 12.4299 53.1552 12.4664H53.1555Z" fill="#524F75"/>
<path d="M61.5866 72.1757C62.1772 74.6699 62.2473 76.8518 62.1772 78.1807C62.1071 79.5094 61.4844 81.3293 60.8991 83.2902H57.784C58.1759 81.1289 58.2989 79.3484 58.1759 78.1807C58.0529 77.0122 57.7342 75.9733 56.8573 73.1824" fill="#F88669"/>
<path d="M58.7178 82.4999C58.992 80.7184 59.0773 79.194 58.9619 78.0977C58.8429 76.9658 58.6406 76.2198 57.6111 72.9448C57.5814 72.8441 57.532 72.7504 57.4656 72.6691C57.3993 72.5878 57.3175 72.5205 57.2248 72.4712C57.1322 72.4218 57.0307 72.3914 56.9262 72.3817C56.8218 72.3721 56.7164 72.3833 56.6163 72.4147C56.5162 72.4462 56.4234 72.4973 56.3432 72.565C56.2631 72.6327 56.1972 72.7158 56.1495 72.8092C56.1018 72.9027 56.0731 73.0047 56.0653 73.1093C56.0574 73.214 56.0704 73.3191 56.1036 73.4187C57.0964 76.5778 57.2864 77.2793 57.3901 78.2628C57.5066 79.3729 57.3775 81.1022 57.0063 83.1492C56.9857 83.2631 56.9903 83.38 57.0199 83.4919C57.0494 83.6038 57.1032 83.7078 57.1774 83.7966C57.2515 83.8855 57.3443 83.9569 57.4491 84.0059C57.5539 84.055 57.6682 84.0804 57.7839 84.0804H60.8991C61.0693 84.0804 61.235 84.0255 61.3715 83.9237C61.508 83.8219 61.6079 83.6788 61.6564 83.5156C61.692 83.3976 61.7283 83.2748 61.7686 83.1426C62.7888 79.7709 62.9082 79.3252 62.9664 78.2215C63.0609 76.4218 62.8837 74.2229 62.3558 71.9928C62.3073 71.7889 62.1799 71.6126 62.0016 71.5026C61.8232 71.3926 61.6085 71.3578 61.4046 71.4059C61.2007 71.4543 61.0244 71.5817 60.9144 71.76C60.8044 71.9382 60.7696 72.1529 60.8177 72.3568C61.3097 74.4354 61.4752 76.484 61.388 78.1377C61.3411 79.0296 61.2212 79.4922 60.3122 82.4991H58.7178V82.4999Z" fill="#524F75"/>
<path d="M59.6634 81.3951C59.992 81.3951 60.3174 81.4599 60.6211 81.5856C60.9247 81.7114 61.2005 81.8957 61.4329 82.1281C61.6653 82.3605 61.8496 82.6363 61.9754 82.9399C62.1011 83.2435 62.1659 83.569 62.1659 83.8976V85.0829H57.161V83.8976C57.161 83.569 57.2257 83.2435 57.3515 82.9399C57.4772 82.6363 57.6616 82.3605 57.8939 82.1281C58.1263 81.8957 58.4022 81.7114 58.7058 81.5856C59.0094 81.4599 59.3348 81.3951 59.6634 81.3951Z" fill="#8C664F"/>
<path d="M61.3756 84.2927V83.8975C61.3756 83.4434 61.1952 83.0079 60.8741 82.6868C60.553 82.3657 60.1175 82.1853 59.6634 82.1853C59.2093 82.1853 58.7738 82.3657 58.4527 82.6868C58.1316 83.0079 57.9512 83.4434 57.9512 83.8975V84.2927H61.3756ZM59.6634 80.6049C61.4815 80.6049 62.9561 82.0792 62.9561 83.8975V85.0829C62.9561 85.1867 62.9357 85.2894 62.896 85.3853C62.8562 85.4812 62.798 85.5683 62.7246 85.6417C62.6513 85.7151 62.5641 85.7733 62.4683 85.813C62.3724 85.8527 62.2696 85.8732 62.1659 85.8732H57.161C57.0572 85.8732 56.9544 85.8527 56.8586 85.813C56.7627 85.7733 56.6756 85.7151 56.6022 85.6417C56.5288 85.5683 56.4706 85.4812 56.4309 85.3853C56.3912 85.2894 56.3707 85.1867 56.3707 85.0829V83.8975C56.3707 82.0792 57.8453 80.6049 59.6634 80.6049Z" fill="#524F75"/>
<path d="M60.7397 60.2113C64.1172 60.771 66.788 61.0516 68.7512 61.0516C70.7144 61.0516 73.6167 60.652 77.4579 59.8533L76.916 56.1294C73.3549 56.5543 70.6333 56.7671 68.7512 56.7671C66.8691 56.7671 64.6928 56.2837 62.2206 55.317" fill="#F88669"/>
<path d="M76.5683 59.2288L76.2446 57.0037C73.0264 57.3725 70.5316 57.558 68.7512 57.558C66.7611 57.558 64.4902 57.0538 61.9327 56.0536C61.8361 56.0158 61.7478 55.9593 61.673 55.8874C61.5982 55.8155 61.5383 55.7295 61.4966 55.6345C61.455 55.5394 61.4326 55.437 61.4305 55.3333C61.4285 55.2295 61.4469 55.1264 61.4847 55.0297C61.5225 54.9331 61.579 54.8448 61.6509 54.77C61.7228 54.6952 61.8087 54.6352 61.9038 54.5936C61.9989 54.552 62.1012 54.5296 62.205 54.5275C62.3088 54.5254 62.4119 54.5438 62.5086 54.5816C64.8951 55.5144 66.9779 55.977 68.7512 55.977C70.5956 55.977 73.2896 55.7665 76.8225 55.345C77.0271 55.3207 77.2331 55.3772 77.3967 55.5025C77.5602 55.6278 77.6684 55.8121 77.6981 56.0159L78.2397 59.7398C78.2687 59.939 78.2206 60.1417 78.1052 60.3067C77.9898 60.4716 77.8158 60.5862 77.6188 60.6273C73.7292 61.4357 70.7803 61.8416 68.7515 61.8416C66.7374 61.8416 64.0271 61.5571 60.6112 60.9911C60.4045 60.9569 60.2198 60.8419 60.0978 60.6716C59.9758 60.5012 59.9265 60.2894 59.9607 60.0827C59.9949 59.8759 60.1098 59.6913 60.2801 59.5693C60.4505 59.4473 60.6623 59.398 60.8691 59.4322C64.2073 59.9856 66.8383 60.2614 68.7512 60.2614C70.5256 60.2614 73.1365 59.9176 76.5683 59.2288Z" fill="#524F75"/>
<path d="M80.2593 57.2788C80.2152 57.0285 80.1199 56.79 79.9794 56.5783C79.8388 56.3666 79.656 56.1862 79.4424 56.0485C79.2288 55.9109 78.9891 55.8188 78.7382 55.7781C78.4874 55.7375 78.2308 55.7491 77.9847 55.8123L76.9511 56.0779L77.7147 59.7493L78.6438 59.5855C78.9013 59.5401 79.1474 59.4445 79.368 59.304C79.5886 59.1635 79.7793 58.981 79.9293 58.7668C80.0793 58.5525 80.1857 58.3109 80.2423 58.0556C80.2989 57.8003 80.3047 57.5363 80.2593 57.2788Z" fill="#8C664F"/>
<path d="M78.2173 56.558C78.3592 56.5268 78.506 56.5252 78.6485 56.5534C78.791 56.5816 78.9261 56.6389 79.0454 56.7218C79.1647 56.8047 79.2657 56.9113 79.3418 57.035C79.418 57.1587 79.4677 57.2968 79.488 57.4407C79.5099 57.5969 79.5009 57.756 79.4614 57.9087C79.4218 58.0614 79.3526 58.2049 79.2576 58.3309C79.1626 58.4568 79.0438 58.5629 78.9078 58.6429C78.7718 58.7229 78.6214 58.7754 78.4652 58.7973L78.2897 58.822L77.9117 56.6249L78.2173 56.558ZM78.0772 54.9786C78.0102 54.988 77.9436 55.0001 77.8775 55.0146L76.8352 55.2441C76.6367 55.2878 76.4626 55.4062 76.3492 55.5749C76.2358 55.7435 76.1917 55.9494 76.2261 56.1497L76.8615 59.8454C76.8964 60.0479 77.0087 60.2288 77.1746 60.3499C77.3405 60.4711 77.5471 60.5229 77.7505 60.4945L78.6849 60.3633C80.2061 60.1494 81.2666 58.7428 81.0524 57.2205C80.8504 55.7801 79.5178 54.7763 78.0772 54.9786Z" fill="#524F75"/>
<path d="M37.9177 69.8431L38.9564 69.7151C39.224 69.6821 39.4955 69.7064 39.753 69.7863C40.0105 69.8661 40.248 69.9998 40.45 70.1784C40.652 70.3569 40.8137 70.5764 40.9245 70.8221C41.0353 71.0679 41.0926 71.3344 41.0927 71.604C41.0927 71.8867 41.0371 72.1666 40.9289 72.4278C40.8208 72.6889 40.6622 72.9262 40.4624 73.1261C40.2625 73.326 40.0252 73.4846 39.7641 73.5928C39.5029 73.701 39.223 73.7566 38.9403 73.7566H37.9317C37.4427 73.7566 36.9737 73.5624 36.6279 73.2166C36.2821 72.8708 36.0878 72.4018 36.0878 71.9127C36.0877 71.4039 36.2736 70.9125 36.6107 70.5313C36.9478 70.15 37.4127 69.9053 37.9177 69.8431Z" fill="#F88669"/>
<path d="M36.8781 71.9122C36.8781 72.1917 36.9891 72.4597 37.1867 72.6573C37.3843 72.8549 37.6523 72.9659 37.9317 72.9659H38.9403C39.1192 72.9659 39.2964 72.9307 39.4617 72.8622C39.627 72.7938 39.7772 72.6934 39.9037 72.5669C40.0302 72.4404 40.1305 72.2902 40.1989 72.1249C40.2673 71.9596 40.3025 71.7824 40.3024 71.6035C40.3024 71.4458 40.2688 71.29 40.2041 71.1462C40.1393 71.0025 40.0447 70.8741 39.9266 70.7697C39.8085 70.6652 39.6695 70.587 39.5189 70.5403C39.3684 70.4935 39.2096 70.4793 39.0531 70.4985L38.0144 70.6265C37.7008 70.6654 37.4122 70.8176 37.203 71.0544C36.9937 71.2911 36.8781 71.5962 36.8781 71.9122ZM38.8597 68.9304C40.3362 68.7486 41.6806 69.7978 41.8626 71.274C41.8761 71.3833 41.8829 71.4934 41.8829 71.6035C41.8829 73.2288 40.5656 74.5464 38.9403 74.5464H37.9317C36.4769 74.5464 35.2976 73.3671 35.2976 71.9122C35.2976 70.4603 36.3799 69.2359 37.8211 69.0584L38.8597 68.9304Z" fill="#524F75"/>
<path d="M62.2723 52.0986C62.7019 52.2388 63.1526 52.3844 63.6254 52.5364C68.1143 53.9776 72.9803 51.9018 75.0468 47.6643L75.2757 47.1954C75.3487 47.045 75.4177 46.8922 75.4815 46.7373C77.1931 42.5954 75.2233 37.8503 71.0811 36.1386C67.275 34.5657 64.8627 33.5308 63.8441 33.034C62.8254 32.5372 60.5243 31.2733 56.9418 29.2424C56.7961 29.1597 56.6478 29.0817 56.4972 29.0085C52.4696 27.0439 47.6119 28.7166 45.6471 32.7448L45.4619 33.1246C43.4829 37.1822 44.6475 42.0367 48.163 44.7673C47.5928 45.5294 47.2677 46.4469 47.2308 47.398C46.9708 53.9849 46.6031 58.5549 46.1273 61.1074C45.7751 62.9977 44.1947 65.8852 41.3856 69.7701C40.7687 70.6233 40.4365 71.6494 40.4365 72.7024C40.4365 75.4664 42.6771 77.7073 45.4414 77.7073H56.7722C61.762 77.7073 65.8984 73.8398 66.2335 68.8613C66.4906 65.0484 66.5688 62.4637 66.4695 61.1074C66.3621 59.6341 65.6366 57.1022 62.2723 52.0986Z" fill="#F88669"/>
<path d="M65.5489 52.9411C69.4382 53.3454 73.2735 51.3008 75.0476 47.6643L75.276 47.1955C75.3492 47.045 75.418 46.8923 75.482 46.7374C77.1937 42.5954 75.2236 37.8503 71.0819 36.1386C70.5282 35.91 70.0045 35.6927 69.5101 35.4869C65.4272 36.2345 62.4227 39.9028 62.6187 44.1646L62.7514 47.0485C62.8011 48.1676 63.0743 49.2655 63.5547 50.2775C64.0351 51.2894 64.7132 52.1951 65.5489 52.9411Z" fill="#FFF4D4"/>
<path d="M63.6254 52.5362C68.1143 53.9773 72.9803 51.9016 75.0468 47.6641L75.2757 47.1952C75.3487 47.0448 75.4177 46.892 75.4815 46.7371C77.1931 42.5952 75.2233 37.85 71.0811 36.1384C67.275 34.5655 64.8627 33.5306 63.8441 33.0338C62.8254 32.537 60.5243 31.2731 56.9418 29.2419C56.7961 29.1593 56.6478 29.0813 56.4972 29.008C52.4696 27.0437 47.6119 28.7164 45.6471 32.7445L45.4619 33.1244C43.4829 37.182 44.6475 42.0365 48.163 44.767C47.5928 45.5292 47.2677 46.4466 47.2308 47.3978C46.9708 53.9847 46.6031 58.5547 46.1273 61.1072C45.7751 62.9974 44.1947 65.885 41.3856 69.7698C40.7687 70.6232 40.4366 71.6494 40.4365 72.7024C40.4365 75.4664 42.6771 77.7073 45.4414 77.7073H56.7722C61.762 77.7073 65.8984 73.8398 66.2335 68.8613C66.4906 65.0484 66.5688 62.4637 66.4695 61.1074C66.3621 59.6336 65.6366 57.1022 62.2723 52.0984C62.7019 52.2388 63.1526 52.3845 63.6254 52.5362ZM62.2723 52.0987L61.8966 53.3185C62.3286 53.4595 62.6674 53.8888 63.1423 54.0413C63.959 54.3041 64.8035 54.4709 65.6587 54.5384C65.4832 54.23 65.3038 53.9238 65.1206 53.6199C64.819 53.1191 63.8699 52.6123 62.2723 52.0987ZM68.0458 60.9923C68.1517 62.4458 68.0719 65.0824 67.8098 68.9675C67.4191 74.776 62.5934 79.2878 56.7719 79.2878H45.4414C41.8044 79.2878 38.856 76.3394 38.856 72.7024C38.856 71.3169 39.293 69.9666 40.1049 68.8439C42.7846 65.1379 44.2766 62.4124 44.5737 60.8179C45.0313 58.3619 45.3945 53.8501 45.6516 47.3353C45.6816 46.566 45.8529 45.8087 46.1568 45.1013C42.8634 41.8094 41.9483 36.7234 44.0413 32.4316L44.2265 32.0517C46.5741 27.2392 52.3782 25.2406 57.1907 27.5879C57.3707 27.6756 57.5474 27.7689 57.7218 27.8677C61.2737 29.8812 63.5593 31.1366 64.5371 31.6137C65.5152 32.0907 67.912 33.1188 71.6854 34.678C76.6336 36.7231 78.988 42.3926 76.9429 47.3411C76.8662 47.526 76.784 47.7085 76.6963 47.8885L76.4677 48.3574C74.4399 52.5151 70.102 54.889 65.6587 54.5384C67.2097 57.269 67.9228 59.3157 68.0458 60.9923Z" fill="#524F75"/>
<path d="M64.7226 52.856C61.3211 51.6277 58.9111 50.5008 57.5121 49.4951C57.3419 49.3728 57.1301 49.3231 56.9233 49.3569C56.7164 49.3908 56.5315 49.5054 56.4092 49.6756C56.2869 49.8457 56.2372 50.0575 56.271 50.2644C56.3048 50.4712 56.4194 50.6561 56.5896 50.7785C58.1327 51.8877 60.6583 53.0689 64.186 54.3427C64.3831 54.4139 64.6005 54.4038 64.7902 54.3147C64.9799 54.2256 65.1265 54.0648 65.1976 53.8677C65.2688 53.6705 65.2587 53.4532 65.1696 53.2635C65.0805 53.0737 64.9197 52.9272 64.7226 52.856ZM45.7891 44.7394C46.6499 45.5291 47.2813 46.0997 47.6854 46.4532C48.5997 47.2529 49.6102 47.8691 50.5714 48.1551C50.7723 48.2149 50.9887 48.1924 51.173 48.0926C51.3573 47.9928 51.4944 47.8239 51.5542 47.623C51.614 47.4221 51.5915 47.2057 51.4917 47.0214C51.3919 46.8371 51.223 46.7 51.0221 46.6402C50.3048 46.4269 49.4827 45.9253 48.7259 45.2634C48.3334 44.9199 47.7097 44.3564 46.8572 43.5743C46.7807 43.5042 46.6912 43.4498 46.5937 43.4143C46.4961 43.3788 46.3926 43.3628 46.2889 43.3673C46.1852 43.3718 46.0834 43.3967 45.9894 43.4405C45.8953 43.4844 45.8108 43.5463 45.7406 43.6228C45.6705 43.6993 45.6161 43.7889 45.5806 43.8864C45.5451 43.9839 45.5291 44.0875 45.5336 44.1912C45.5381 44.2948 45.563 44.3966 45.6068 44.4907C45.6507 44.5848 45.7126 44.6693 45.7891 44.7394Z" fill="#524F75"/>
<path d="M49.9774 59.1036C47.2345 59.471 44.9001 59.471 42.9366 59.471C40.9731 59.471 38.0711 59.0714 34.2302 58.2728L34.7718 54.5489C38.3332 54.9738 41.0548 55.1866 42.9366 55.1866C44.8184 55.1866 46.6879 54.6708 49.16 53.7041" fill="#F88669"/>
<path d="M35.4432 55.4229C38.6611 55.7917 41.1562 55.9769 42.9366 55.9769C44.8255 55.9769 46.7045 55.513 49.4479 54.4401C49.5446 54.4023 49.6328 54.3458 49.7077 54.2739C49.7825 54.202 49.8424 54.116 49.884 54.0209C49.9256 53.9259 49.9481 53.8235 49.9502 53.7198C49.9522 53.616 49.9338 53.5128 49.896 53.4162C49.8582 53.3195 49.8017 53.2313 49.7298 53.1565C49.6579 53.0816 49.5719 53.0217 49.4769 52.9801C49.3818 52.9385 49.2794 52.916 49.1757 52.914C49.0719 52.9119 48.9688 52.9303 48.8721 52.9681C46.2959 53.9754 44.5919 54.3964 42.9366 54.3964C41.0924 54.3964 38.3985 54.1859 34.8653 53.7642C34.6607 53.7398 34.4546 53.7963 34.2911 53.9216C34.1275 54.0469 34.0194 54.2312 33.9897 54.4351L33.4481 58.159C33.4191 58.3582 33.4672 58.561 33.5826 58.7259C33.6981 58.8909 33.8721 59.0055 34.0693 59.0464C37.9586 59.8551 40.9078 60.2605 42.9366 60.2605C46.1002 60.2605 47.7781 60.1952 50.0822 59.8864C50.29 59.8586 50.4781 59.7495 50.6054 59.5829C50.7326 59.4164 50.7885 59.2061 50.7607 58.9983C50.7329 58.7906 50.6237 58.6024 50.4571 58.4752C50.2906 58.348 50.0803 58.2921 49.8726 58.3199C47.6564 58.6168 46.0343 58.6808 42.9366 58.6808C41.162 58.6808 38.551 58.337 35.1195 57.6482L35.4432 55.4229Z" fill="#524F75"/>
<path d="M31.4288 55.6982C31.4727 55.4493 31.568 55.2122 31.7086 55.0021C31.8491 54.792 32.032 54.6135 32.2454 54.478C32.4588 54.3425 32.6981 54.2529 32.948 54.215C33.198 54.1771 33.4531 54.1917 33.6971 54.2579L34.6878 54.5268L33.9937 58.2051L33.0406 58.0266C32.5195 57.9289 32.058 57.6296 31.7562 57.1937C31.4544 56.7577 31.3367 56.2204 31.4288 55.6982Z" fill="#8C664F"/>
<path d="M33.49 55.0207C33.352 54.9832 33.2077 54.9749 33.0663 54.9963C32.9249 55.0178 32.7896 55.0684 32.6688 55.1451C32.5481 55.2217 32.4447 55.3227 32.3652 55.4416C32.2857 55.5605 32.2319 55.6946 32.2072 55.8355C32.1512 56.1527 32.2227 56.4791 32.406 56.744C32.5893 57.0088 32.8697 57.1907 33.1863 57.25L33.3633 57.2829L33.7755 55.0982L33.49 55.0207ZM30.6507 55.561C30.9009 54.1415 32.2543 53.194 33.6739 53.4439C33.7513 53.4576 33.828 53.4748 33.9041 53.4953L34.8948 53.764C35.0868 53.8161 35.252 53.9387 35.3576 54.1073C35.4632 54.2759 35.5014 54.4781 35.4646 54.6736L34.7705 58.3516C34.7317 58.5574 34.6128 58.7394 34.4399 58.8576C34.2671 58.9757 34.0543 59.0205 33.8485 58.982L32.8955 58.8034C31.3848 58.5202 30.3838 57.0741 30.6507 55.561Z" fill="#524F75"/>
<path d="M48.4159 72.1757C49.0067 74.6699 49.0765 76.8518 49.0067 78.1807C48.9366 79.5094 48.3139 81.3293 47.7289 83.2902H44.6132C45.0054 81.1289 45.1285 79.3484 45.0054 78.1807C44.8824 77.0122 44.564 75.9733 43.6868 73.1824" fill="#F88669"/>
<path d="M45.547 82.4999C45.8212 80.7184 45.9066 79.194 45.7912 78.0977C45.6721 76.9658 45.4698 76.2198 44.4407 72.9448C44.3751 72.7482 44.235 72.5853 44.0504 72.491C43.8659 72.3968 43.6517 72.3788 43.4541 72.4409C43.2564 72.5031 43.091 72.6404 42.9936 72.8232C42.8962 73.0061 42.8745 73.2199 42.9332 73.4186C43.926 76.5778 44.1162 77.2793 44.2197 78.2628C44.3364 79.3729 44.207 81.1022 43.8359 83.1492C43.8152 83.263 43.8199 83.38 43.8494 83.4919C43.879 83.6038 43.9327 83.7078 44.0069 83.7966C44.0811 83.8855 44.1738 83.9569 44.2787 84.0059C44.3835 84.055 44.4978 84.0804 44.6135 84.0804H47.7292C47.8994 84.0804 48.0651 84.0254 48.2015 83.9237C48.338 83.8219 48.4379 83.6788 48.4865 83.5156C48.5218 83.3976 48.5584 83.2748 48.5984 83.1426C49.6186 79.7709 49.7379 79.3252 49.7962 78.2215C49.8907 76.4218 49.7135 74.2229 49.1853 71.9928C49.1614 71.8918 49.1178 71.7965 49.0571 71.7123C48.9964 71.6282 48.9197 71.5568 48.8314 71.5023C48.743 71.4478 48.6449 71.4112 48.5424 71.3947C48.44 71.3781 48.3352 71.3819 48.2342 71.4058C48.1333 71.4297 48.038 71.4732 47.9538 71.534C47.8696 71.5947 47.7983 71.6714 47.7438 71.7597C47.6893 71.848 47.6527 71.9462 47.6361 72.0487C47.6195 72.1511 47.6233 72.2558 47.6472 72.3568C48.1396 74.4354 48.3047 76.484 48.2178 78.1377C48.1709 79.0296 48.051 79.4922 47.142 82.4991H45.547V82.4999Z" fill="#524F75"/>
<path d="M46.8878 69.8048C46.8878 69.9432 46.915 70.0803 46.9679 70.2082C47.0209 70.336 47.0985 70.4522 47.1963 70.5501C47.2941 70.648 47.4103 70.7256 47.5382 70.7786C47.666 70.8316 47.8031 70.8588 47.9415 70.8588C48.0799 70.8588 48.2169 70.8316 48.3448 70.7786C48.4726 70.7256 48.5888 70.648 48.6866 70.5501C48.7845 70.4522 48.8621 70.336 48.915 70.2082C48.9679 70.0803 48.9952 69.9432 48.9951 69.8048C48.9952 69.6665 48.9679 69.5294 48.915 69.4015C48.8621 69.2737 48.7845 69.1575 48.6866 69.0596C48.5888 68.9617 48.4726 68.8841 48.3448 68.8311C48.2169 68.7781 48.0799 68.7509 47.9415 68.7509C47.8031 68.7509 47.666 68.7781 47.5382 68.8311C47.4103 68.8841 47.2941 68.9617 47.1963 69.0596C47.0985 69.1575 47.0209 69.2737 46.9679 69.4015C46.915 69.5294 46.8878 69.6665 46.8878 69.8048Z" fill="#524F75"/>
<path d="M42.1463 71.1219C42.1463 71.2603 42.1736 71.3973 42.2265 71.5251C42.2795 71.653 42.3571 71.7691 42.4549 71.8669C42.5528 71.9648 42.6689 72.0424 42.7968 72.0954C42.9246 72.1483 43.0616 72.1756 43.2 72.1756C43.3384 72.1756 43.4754 72.1483 43.6032 72.0954C43.731 72.0424 43.8472 71.9648 43.945 71.8669C44.0429 71.7691 44.1205 71.653 44.1734 71.5251C44.2264 71.3973 44.2537 71.2603 44.2537 71.1219C44.2537 70.9835 44.2264 70.8465 44.1734 70.7187C44.1205 70.5908 44.0429 70.4747 43.945 70.3768C43.8472 70.279 43.731 70.2014 43.6032 70.1484C43.4754 70.0955 43.3384 70.0682 43.2 70.0682C43.0616 70.0682 42.9246 70.0955 42.7968 70.1484C42.6689 70.2014 42.5528 70.279 42.4549 70.3768C42.3571 70.4747 42.2795 70.5908 42.2265 70.7187C42.1736 70.8465 42.1463 70.9835 42.1463 71.1219Z" fill="#524F75"/>
<path d="M53.7366 48.9951C53.7366 49.1334 53.7638 49.2704 53.8168 49.3983C53.8697 49.5261 53.9473 49.6423 54.0452 49.7401C54.143 49.838 54.2592 49.9156 54.387 49.9685C54.5149 50.0215 54.6519 50.0487 54.7902 50.0487C54.9286 50.0487 55.0656 50.0215 55.1935 49.9685C55.3213 49.9156 55.4374 49.838 55.5353 49.7401C55.6331 49.6423 55.7107 49.5261 55.7637 49.3983C55.8166 49.2704 55.8439 49.1334 55.8439 48.9951C55.8439 48.8567 55.8166 48.7197 55.7637 48.5918C55.7107 48.464 55.6331 48.3479 55.5353 48.25C55.4374 48.1522 55.3213 48.0746 55.1935 48.0216C55.0656 47.9687 54.9286 47.9414 54.7902 47.9414C54.6519 47.9414 54.5149 47.9687 54.387 48.0216C54.2592 48.0746 54.143 48.1522 54.0452 48.25C53.9473 48.3479 53.8697 48.464 53.8168 48.5918C53.7638 48.7197 53.7366 48.8567 53.7366 48.9951Z" fill="#524F75"/>
<path d="M46.4927 81.3951C46.8213 81.3951 47.1467 81.4599 47.4503 81.5856C47.7539 81.7114 48.0298 81.8957 48.2622 82.1281C48.4945 82.3605 48.6789 82.6363 48.8046 82.9399C48.9304 83.2435 48.9951 83.569 48.9951 83.8976V85.0829H43.9902V83.8976C43.9902 83.569 44.055 83.2435 44.1807 82.9399C44.3065 82.6363 44.4908 82.3605 44.7232 82.1281C44.9556 81.8957 45.2314 81.7114 45.535 81.5856C45.8386 81.4599 46.1641 81.3951 46.4927 81.3951Z" fill="#8C664F"/>
<path d="M48.2049 83.8975C48.2049 83.4434 48.0245 83.0079 47.7034 82.6868C47.3823 82.3657 46.9468 82.1853 46.4927 82.1853C46.0386 82.1853 45.6031 82.3657 45.282 82.6868C44.9609 83.0079 44.7805 83.4434 44.7805 83.8975V84.2927H48.2049V83.8975ZM46.4927 80.6049C48.311 80.6049 49.7854 82.0792 49.7854 83.8975V85.0829C49.7854 85.1867 49.7649 85.2894 49.7252 85.3853C49.6855 85.4812 49.6273 85.5683 49.5539 85.6417C49.4805 85.7151 49.3934 85.7733 49.2975 85.813C49.2017 85.8527 49.0989 85.8732 48.9951 85.8732H43.9902C43.8865 85.8732 43.7837 85.8527 43.6878 85.813C43.592 85.7733 43.5048 85.7151 43.4315 85.6417C43.3581 85.5683 43.2999 85.4812 43.2602 85.3853C43.2204 85.2894 43.2 85.1867 43.2 85.0829V83.8975C43.2 82.0792 44.6743 80.6049 46.4927 80.6049Z" fill="#524F75"/>
<path d="M74.1033 37.4051C74.6857 37.4098 75.2826 37.531 75.894 37.7689C76.6866 38.013 77.3551 38.5299 77.3551 39.4829C77.3551 39.5516 77.3506 39.6201 77.343 39.6886C77.2791 40.221 77.0223 40.7115 76.6212 41.0674C76.22 41.4232 75.7024 41.6197 75.1662 41.6197H73.2179C72.6389 41.6198 72.0756 41.4314 71.6131 41.083C71.1507 40.7346 70.8141 40.2452 70.6544 39.6886C70.5437 39.3028 70.5908 38.8888 70.7853 38.5377C70.9797 38.1866 71.3057 37.9271 71.6915 37.8163C71.9132 37.752 72.9706 37.3959 74.1033 37.4051Z" fill="#8B674F"/>
<path d="M74.097 38.1954C73.6196 38.1917 73.1126 38.2618 72.5986 38.3843C72.4519 38.4191 72.3142 38.4559 72.1753 38.4965C72.104 38.5173 71.928 38.5705 71.9103 38.5755C71.7259 38.6285 71.57 38.7524 71.4769 38.9202C71.3838 39.088 71.3611 39.2858 71.4138 39.4703C71.5264 39.862 71.7634 40.2065 72.089 40.4516C72.4146 40.6968 72.8112 40.8293 73.2187 40.8293H75.1669C75.5098 40.8291 75.8407 40.7034 76.0972 40.4759C76.3537 40.2484 76.518 39.9348 76.5591 39.5944C76.5633 39.5573 76.5651 39.5201 76.5651 39.483C76.5651 39.0154 76.277 38.7141 75.6611 38.5242L75.6076 38.5055C75.0829 38.3013 74.5803 38.1991 74.097 38.1954ZM78.1454 39.4827C78.1454 39.5828 78.1396 39.6829 78.1277 39.7825C78.0408 40.5068 77.6914 41.1741 77.1457 41.6582C76.6001 42.1423 75.8959 42.4097 75.1664 42.4098H73.2182C72.4676 42.4098 71.7374 42.1656 71.1379 41.714C70.5384 41.2624 70.1021 40.628 69.895 39.9066C69.5436 38.6841 70.2506 37.4089 71.4723 37.0567C71.4765 37.0556 71.6498 37.0029 71.7341 36.9784C71.8991 36.9303 72.0653 36.8864 72.2325 36.8467C72.8615 36.6971 73.4895 36.6102 74.1096 36.6152C74.7826 36.6207 75.4651 36.7577 76.1547 37.0224C77.3564 37.4017 78.1454 38.2376 78.1454 39.4827Z" fill="#524F75"/>
<path d="M60.7914 56.1489C63.3989 56.0388 65.6021 58.0637 65.7122 60.6712C65.7148 60.7376 65.7164 60.804 65.7164 60.8704V68.4615C65.7164 71.4989 63.3072 73.9887 60.2711 74.0888C57.5255 74.1794 55.227 72.0268 55.1361 69.2812C55.1311 69.1304 55.1329 68.9795 55.1416 68.8289L55.5805 61.2779C55.743 58.4838 57.9952 56.2675 60.7914 56.1489Z" fill="#FFFBEF"/>
<path d="M46.3167 33.9725L42.5517 29.2055C42.0087 28.5179 41.2759 28.0047 40.4442 27.7295C39.6124 27.4543 38.7181 27.4291 37.8722 27.6571L30.9425 29.5245C30.3387 29.6872 29.7001 29.6672 29.1076 29.467C28.5152 29.2668 27.9954 28.8954 27.614 28.3997L23.3301 22.8293C23.0675 22.488 22.9327 22.0655 22.949 21.6352C22.9654 21.2049 23.1319 20.7939 23.4197 20.4735C23.5454 20.3334 23.7003 20.2223 23.8734 20.1481C24.0465 20.074 24.2337 20.0385 24.422 20.0442C24.6102 20.0498 24.7949 20.0965 24.9633 20.181C25.1316 20.2654 25.2795 20.3856 25.3966 20.5331L28.8713 24.9102C29.2591 25.3986 29.7827 25.7614 30.3762 25.9528C30.9697 26.1443 31.6066 26.1559 32.2067 25.9863L39.4158 23.9485C40.359 23.682 41.3635 23.7323 42.2754 24.0916C43.1873 24.451 43.9561 25.0995 44.4639 25.9378L47.9689 31.724" fill="#9D6249"/>
<path d="M46.9365 33.4826L43.1721 28.7158C42.5332 27.9069 41.6711 27.3032 40.6926 26.9794C39.714 26.6556 38.662 26.6259 37.6667 26.894L30.7368 28.7617C30.284 28.8837 29.8052 28.8687 29.361 28.7185C28.9167 28.5683 28.527 28.2897 28.2412 27.9179L23.9565 22.3475C23.8064 22.1525 23.7293 21.9112 23.7386 21.6653C23.7479 21.4194 23.843 21.1845 24.0073 21.0015C24.0564 20.9469 24.1168 20.9037 24.1842 20.8749C24.2517 20.8461 24.3246 20.8323 24.398 20.8345C24.4713 20.8368 24.5432 20.855 24.6088 20.8879C24.6744 20.9209 24.732 20.9677 24.7776 21.0252L28.2531 25.4018C28.7378 26.0123 29.3922 26.4658 30.1341 26.7051C30.8759 26.9445 31.672 26.9591 32.4221 26.7471L39.631 24.7093C40.4077 24.4897 41.2351 24.5311 41.9861 24.827C42.737 25.123 43.3701 25.6572 43.7882 26.3477L47.2932 32.1336C47.4027 32.3109 47.5778 32.4377 47.7804 32.4865C47.9829 32.5353 48.1966 32.5021 48.3748 32.3941C48.553 32.2862 48.6814 32.1123 48.732 31.9102C48.7826 31.708 48.7514 31.4941 48.645 31.3149L45.14 25.5288C44.5426 24.5425 43.6381 23.7795 42.5652 23.3568C41.4924 22.934 40.3105 22.875 39.2008 23.1886L31.9922 25.2264C31.5422 25.3536 31.0645 25.3448 30.6195 25.2012C30.1744 25.0576 29.7817 24.7855 29.4908 24.4193L26.0154 20.0421C25.8268 19.8045 25.5887 19.611 25.3176 19.4749C25.0465 19.3389 24.749 19.2637 24.4458 19.2545C24.1426 19.2453 23.8411 19.3024 23.5623 19.4218C23.2835 19.5412 23.0341 19.72 22.8315 19.9457C22.4205 20.4034 22.1827 20.9905 22.1593 21.6053C22.1359 22.22 22.3284 22.8235 22.7034 23.3111L26.9879 28.8812C27.4645 29.5008 28.1142 29.965 28.8547 30.2153C29.5952 30.4656 30.3932 30.4907 31.148 30.2874L38.0779 28.4197C38.7746 28.232 39.511 28.2527 40.196 28.4793C40.881 28.706 41.4845 29.1287 41.9317 29.6949L45.6961 34.4617C45.826 34.6262 46.0158 34.7324 46.224 34.7569C46.4321 34.7815 46.6415 34.7223 46.806 34.5925C46.9705 34.4626 47.0767 34.2728 47.1013 34.0646C47.1258 33.8565 47.0666 33.6471 46.9368 33.4826H46.9365Z" fill="#524F75"/>
<path d="M33.1705 26.4996C32.3716 24.8132 31.7293 23.4703 31.2444 22.4698C30.9236 21.8076 30.4726 20.6844 29.8918 19.0994C29.732 18.7101 29.7322 18.2734 29.8922 17.8841C30.0522 17.4948 30.3591 17.1843 30.7465 17.0198C31.1347 16.855 31.5721 16.8493 31.9644 17.0039C32.3568 17.1586 32.6727 17.4611 32.8441 17.8464C33.5011 19.6041 33.951 20.8398 34.1941 21.5526C34.5618 22.6313 35.0305 24.1054 35.6 25.9751" fill="#9D6249"/>
<path d="M33.4484 21.7942C33.8311 22.8568 34.3229 24.3151 34.923 26.1669C34.9899 26.3634 35.1314 26.5257 35.317 26.6188C35.5026 26.7118 35.7173 26.728 35.9148 26.664C36.1122 26.6 36.2766 26.4609 36.3723 26.2767C36.468 26.0924 36.4874 25.878 36.4263 25.6796C35.8218 23.8133 35.3247 22.3398 34.9348 21.2584C34.6759 20.5406 34.2025 19.3076 33.5124 17.5548L33.4932 17.51C33.2274 16.9401 32.7484 16.4974 32.1593 16.2771C31.5703 16.0569 30.9183 16.0768 30.3438 16.3326C29.772 16.5872 29.3229 17.056 29.093 17.6382C28.8632 18.2204 28.871 18.8696 29.1147 19.4461C29.7295 21.0369 30.2071 22.1677 30.5532 22.8521C31.0542 23.8415 31.7191 25.1715 32.5465 26.8412C32.6395 27.029 32.8034 27.1721 33.002 27.2391C33.2006 27.3061 33.4177 27.2914 33.6055 27.1983C33.7933 27.1052 33.9364 26.9413 34.0034 26.7427C34.0703 26.5441 34.0557 26.327 33.9626 26.1392C33.3016 24.8028 32.6352 23.469 31.9633 22.138C31.6464 21.511 31.1835 20.4152 30.5838 18.8637C30.3973 18.4291 30.5816 17.9565 30.9868 17.7764C31.1795 17.6905 31.398 17.6824 31.5965 17.7539C31.7951 17.8254 31.9583 17.9709 32.052 18.1599C32.7311 19.8853 33.1971 21.098 33.4481 21.7942H33.4484Z" fill="#524F75"/>
<path d="M38.0041 25.039C37.7247 23.4714 37.4482 21.9034 37.1747 20.3349C37.0482 19.6095 36.8507 18.447 36.5812 16.8481C36.5349 16.4297 36.6554 16.01 36.9165 15.6799C37.1776 15.3498 37.5582 15.1359 37.976 15.0845C38.3945 15.0331 38.8165 15.1481 39.151 15.4048C39.4855 15.6615 39.7059 16.0393 39.7645 16.4569C39.9682 17.9225 40.0891 19.041 40.1275 19.8141C40.1829 20.9323 40.2018 22.649 40.185 24.9649" fill="#9D6249"/>
<path d="M37.9254 15.8897C38.1372 15.8561 38.3538 15.9071 38.5284 16.0317C38.703 16.1562 38.8217 16.3444 38.8589 16.5556C39.1097 17.9912 39.2662 19.0844 39.3296 19.8272C39.4224 20.9249 39.5009 22.6273 39.5641 24.9285C39.5747 25.1346 39.6655 25.3284 39.8171 25.4685C39.9687 25.6085 40.1691 25.6837 40.3754 25.678C40.5817 25.6723 40.7776 25.5861 40.9213 25.4379C41.0649 25.2897 41.1448 25.0912 41.144 24.8848C41.0798 22.5562 41.0002 20.8282 40.9043 19.6945C40.8369 18.8958 40.6739 17.761 40.4157 16.2824C40.3067 15.6629 39.9587 15.1109 39.4466 14.7455C38.9345 14.38 38.2994 14.2304 37.678 14.3287C37.0569 14.427 36.4995 14.7662 36.1268 15.2727C35.754 15.7792 35.5959 16.4122 35.6866 17.0345L35.6945 17.0793C35.9308 18.2356 36.1695 19.3915 36.4105 20.5469C36.6394 21.6353 36.9702 23.1937 37.4041 25.2219C37.4496 25.4252 37.5735 25.6023 37.7489 25.7146C37.9242 25.827 38.1369 25.8656 38.3405 25.822C38.5442 25.7785 38.7224 25.6563 38.8365 25.482C38.9505 25.3077 38.9912 25.0954 38.9495 24.8914C38.6158 23.3357 38.2851 21.7793 37.9573 20.2223C37.7185 19.078 37.4822 17.9331 37.2484 16.7877C37.223 16.5795 37.2794 16.3695 37.4057 16.2021C37.5319 16.0346 37.7182 15.9226 37.9254 15.8897Z" fill="#524F75"/>
<path d="M51.5966 31.8266C51.5966 32.9916 51.9869 34.109 52.6815 34.9329C53.3762 35.7567 54.3183 36.2195 55.3007 36.2195C56.2831 36.2195 57.2253 35.7567 57.92 34.9329C58.6146 34.109 59.0049 32.9916 59.0049 31.8266C59.0049 30.6615 58.6146 29.5441 57.92 28.7203C57.2253 27.8964 56.2831 27.4336 55.3007 27.4336C54.3183 27.4336 53.3762 27.8964 52.6815 28.7203C51.9869 29.5441 51.5966 30.6615 51.5966 31.8266Z" fill="white"/>
<path d="M58.7999 31.5597C58.7999 32.4802 59.1312 33.3629 59.721 34.0137C60.3107 34.6646 61.1106 35.0302 61.9446 35.0302C62.7786 35.0302 63.5784 34.6646 64.1682 34.0137C64.7579 33.3629 65.0892 32.4802 65.0892 31.5597C65.0892 30.6393 64.7579 29.7566 64.1682 29.1057C63.5784 28.4549 62.7786 28.0892 61.9446 28.0892C61.1106 28.0892 60.3107 28.4549 59.721 29.1057C59.1312 29.7566 58.7999 30.6393 58.7999 31.5597Z" fill="white"/>
<path d="M62.0913 35.5789C64.0537 35.5789 65.5902 33.7806 65.5902 31.6187C65.5902 29.4569 64.0537 27.6586 62.0913 27.6586C60.1291 27.6586 58.5929 29.4566 58.5929 31.6187C58.5929 33.7809 60.1291 35.5789 62.0913 35.5789ZM62.0913 33.9984C61.0619 33.9984 60.1734 32.9582 60.1734 31.6187C60.1734 30.2793 61.0619 29.2391 62.0913 29.2391C63.1207 29.2391 64.0098 30.2793 64.0098 31.6187C64.0098 32.9582 63.1207 33.9984 62.0913 33.9984Z" fill="#524F75"/>
<path d="M61.7647 32.8771C61.6119 33.0723 61.3859 33.1958 61.1338 33.1958C60.6733 33.1958 60.3003 32.7838 60.3003 32.2757C60.3003 31.7673 60.6733 31.3553 61.1338 31.3553C61.5887 31.3553 61.958 31.7573 61.9672 32.257L61.3487 32.3563L61.7647 32.8771Z" fill="#232323"/>
<path d="M55.4488 37.1414C58.1572 37.1414 60.322 34.7678 60.322 31.8731C60.322 28.9785 58.1572 26.6049 55.4488 26.6049C52.7404 26.6049 50.5756 28.979 50.5756 31.8731C50.5756 34.7673 52.7404 37.1414 55.4488 37.1414ZM55.4488 35.561C53.6476 35.561 52.1561 33.9254 52.1561 31.8731C52.1561 29.8209 53.6476 28.1853 55.4488 28.1853C57.25 28.1853 58.7415 29.8211 58.7415 31.8731C58.7415 33.9251 57.25 35.561 55.4488 35.561Z" fill="#524F75"/>
<path d="M55.2923 33.2609C55.0753 33.5404 54.7536 33.7172 54.3951 33.7172C53.7405 33.7172 53.2098 33.1276 53.2098 32.4001C53.2098 31.6725 53.7405 31.083 54.3951 31.083C55.0418 31.083 55.5676 31.6583 55.5805 32.3732L54.7017 32.5152L55.2923 33.2609Z" fill="#232323"/>
</svg>
