<svg width="28" height="26" viewBox="0 0 28 26" fill="none" xmlns="http://www.w3.org/2000/svg">
<g id="Group 12804">
<path id="Vector" d="M26.3764 0.294861L15.6455 8.23492L17.641 3.55559L26.3764 0.294861Z" fill="#E17726" stroke="#E17726" stroke-width="0.25" stroke-linecap="round" stroke-linejoin="round"/>
<path id="Vector_2" d="M1.62402 0.294861L12.2593 8.30903L10.3594 3.55558L1.62402 0.294861Z" fill="#E27625" stroke="#E27625" stroke-width="0.25" stroke-linecap="round" stroke-linejoin="round"/>
<path id="Vector_3" d="M22.5124 18.7039L19.6572 23.0657L25.7709 24.749L27.5223 18.7993L22.5124 18.7039Z" fill="#E27625" stroke="#E27625" stroke-width="0.25" stroke-linecap="round" stroke-linejoin="round"/>
<path id="Vector_4" d="M0.488281 18.7993L2.22898 24.749L8.33209 23.0657L5.4875 18.7039L0.488281 18.7993Z" fill="#E27625" stroke="#E27625" stroke-width="0.25" stroke-linecap="round" stroke-linejoin="round"/>
<path id="Vector_5" d="M8.00291 11.3386L6.30469 13.9006L12.3547 14.1759L12.1531 7.66505L8.00291 11.3386Z" fill="#E27625" stroke="#E27625" stroke-width="0.25" stroke-linecap="round" stroke-linejoin="round"/>
<path id="Vector_6" d="M19.9972 11.336L15.7835 7.5883L15.6455 14.1733L21.6955 13.898L19.9972 11.336Z" fill="#E27625" stroke="#E27625" stroke-width="0.25" stroke-linecap="round" stroke-linejoin="round"/>
<path id="Vector_7" d="M8.33203 23.0651L11.9938 21.2971L8.84153 18.841L8.33203 23.0651Z" fill="#E27625" stroke="#E27625" stroke-width="0.25" stroke-linecap="round" stroke-linejoin="round"/>
<path id="Vector_8" d="M16.0059 21.2971L19.657 23.0651L19.1582 18.841L16.0059 21.2971Z" fill="#E27625" stroke="#E27625" stroke-width="0.25" stroke-linecap="round" stroke-linejoin="round"/>
<path id="Vector_9" d="M19.657 23.0684L16.0059 21.3005L16.303 23.6719L16.2711 24.6777L19.657 23.0684Z" fill="#D5BFB2" stroke="#D5BFB2" stroke-width="0.25" stroke-linecap="round" stroke-linejoin="round"/>
<path id="Vector_10" d="M8.33203 23.0684L11.7286 24.6777L11.7073 23.6719L11.9938 21.3005L8.33203 23.0684Z" fill="#D5BFB2" stroke="#D5BFB2" stroke-width="0.25" stroke-linecap="round" stroke-linejoin="round"/>
<path id="Vector_11" d="M11.7925 17.2766L8.75684 16.3873L10.9009 15.4027L11.7925 17.2766Z" fill="#233447" stroke="#233447" stroke-width="0.25" stroke-linecap="round" stroke-linejoin="round"/>
<path id="Vector_12" d="M16.208 17.2766L17.0996 15.4027L19.2543 16.3873L16.208 17.2766Z" fill="#233447" stroke="#233447" stroke-width="0.25" stroke-linecap="round" stroke-linejoin="round"/>
<path id="Vector_13" d="M8.33185 23.0657L8.86259 18.7039L5.4873 18.7993L8.33185 23.0657Z" fill="#CC6228" stroke="#CC6228" stroke-width="0.25" stroke-linecap="round" stroke-linejoin="round"/>
<path id="Vector_14" d="M19.1377 18.7039L19.6578 23.0657L22.513 18.7993L19.1377 18.7039Z" fill="#CC6228" stroke="#CC6228" stroke-width="0.25" stroke-linecap="round" stroke-linejoin="round"/>
<path id="Vector_15" d="M21.6955 13.8974L15.6455 14.1726L16.208 17.2746L17.0996 15.4007L19.2543 16.3853L21.6955 13.8974Z" fill="#CC6228" stroke="#CC6228" stroke-width="0.25" stroke-linecap="round" stroke-linejoin="round"/>
<path id="Vector_16" d="M8.75653 16.3853L10.9006 15.4007L11.7922 17.2746L12.3547 14.1726L6.30469 13.8974L8.75653 16.3853Z" fill="#CC6228" stroke="#CC6228" stroke-width="0.25" stroke-linecap="round" stroke-linejoin="round"/>
<path id="Vector_17" d="M6.30469 13.8974L8.84147 18.8414L8.7565 16.3853L6.30469 13.8974Z" fill="#E27525" stroke="#E27525" stroke-width="0.25" stroke-linecap="round" stroke-linejoin="round"/>
<path id="Vector_18" d="M19.2537 16.3853L19.1582 18.8414L21.695 13.8974L19.2537 16.3853Z" fill="#E27525" stroke="#E27525" stroke-width="0.25" stroke-linecap="round" stroke-linejoin="round"/>
<path id="Vector_19" d="M12.3556 14.1743L11.793 17.2763L12.5041 20.9393L12.6633 16.1117L12.3556 14.1743Z" fill="#E27525" stroke="#E27525" stroke-width="0.25" stroke-linecap="round" stroke-linejoin="round"/>
<path id="Vector_20" d="M15.6449 14.1743L15.3477 16.1012L15.4963 20.9393L16.2074 17.2763L15.6449 14.1743Z" fill="#E27525" stroke="#E27525" stroke-width="0.25" stroke-linecap="round" stroke-linejoin="round"/>
<path id="Vector_21" d="M16.2082 17.2764L15.4971 20.9393L16.0066 21.2993L19.159 18.8432L19.2545 16.387L16.2082 17.2764Z" fill="#F5841F" stroke="#F5841F" stroke-width="0.25" stroke-linecap="round" stroke-linejoin="round"/>
<path id="Vector_22" d="M8.75684 16.387L8.84181 18.8432L11.9941 21.2993L12.5036 20.9393L11.7925 17.2764L8.75684 16.387Z" fill="#F5841F" stroke="#F5841F" stroke-width="0.25" stroke-linecap="round" stroke-linejoin="round"/>
<path id="Vector_23" d="M16.2714 24.6782L16.3031 23.6724L16.0272 23.4395H11.9727L11.7073 23.6724L11.7286 24.6782L8.33203 23.069L9.5208 24.043L11.9302 25.7051H16.059L18.479 24.043L19.6572 23.069L16.2714 24.6782Z" fill="#C0AC9D" stroke="#C0AC9D" stroke-width="0.25" stroke-linecap="round" stroke-linejoin="round"/>
<path id="Vector_24" d="M16.0067 21.2984L15.4972 20.9385H12.504L11.9946 21.2984L11.708 23.6699L11.9734 23.437H16.0279L16.3039 23.6699L16.0067 21.2984Z" fill="#161616" stroke="#161616" stroke-width="0.25" stroke-linecap="round" stroke-linejoin="round"/>
<path id="Vector_25" d="M26.8321 8.75365L27.7344 4.37076L26.3757 0.294861L16.0059 7.97029L19.9967 11.3368L25.6327 12.9778L26.8746 11.5274L26.3333 11.1357L27.193 10.3523L26.535 9.84413L27.3947 9.18774L26.8321 8.75365Z" fill="#763E1A" stroke="#763E1A" stroke-width="0.25" stroke-linecap="round" stroke-linejoin="round"/>
<path id="Vector_26" d="M0.265625 4.37076L1.17843 8.75365L0.594664 9.18774L1.46501 9.84413L0.806943 10.3523L1.66668 11.1357L1.12536 11.5274L2.36721 12.9778L8.00331 11.3368L11.9941 7.97029L1.62423 0.294861L0.265625 4.37076Z" fill="#763E1A" stroke="#763E1A" stroke-width="0.25" stroke-linecap="round" stroke-linejoin="round"/>
<path id="Vector_27" d="M25.6328 12.9773L19.9967 11.3364L21.695 13.8985L19.1582 18.8424L22.5122 18.8001H27.5221L25.6328 12.9773Z" fill="#F5841F" stroke="#F5841F" stroke-width="0.25" stroke-linecap="round" stroke-linejoin="round"/>
<path id="Vector_28" d="M8.003 11.3364L2.36697 12.9773L0.488281 18.8001H5.4875L8.84151 18.8424L6.30478 13.8985L8.003 11.3364Z" fill="#F5841F" stroke="#F5841F" stroke-width="0.25" stroke-linecap="round" stroke-linejoin="round"/>
<path id="Vector_29" d="M15.6452 14.1735L16.0061 7.9696L17.6406 3.55496H10.3594L11.9939 7.9696L12.3548 14.1735L12.4928 16.1214L12.5034 20.9384H15.4966L15.5072 16.1214L15.6452 14.1735Z" fill="#F5841F" stroke="#F5841F" stroke-width="0.25" stroke-linecap="round" stroke-linejoin="round"/>
</g>
</svg>
