<svg width="101" height="89" viewBox="0 0 101 89" fill="none" xmlns="http://www.w3.org/2000/svg">
<mask id="mask0_322_932" style="mask-type:alpha" maskUnits="userSpaceOnUse" x="0" y="0" width="101" height="89">
<path d="M28.8077 35.2006L28.0839 37.5922C27.2155 40.5069 24.6101 42.5248 21.5705 42.5248C17.0111 42.5248 13.7543 37.9659 15.057 33.4817L15.7807 31.0901C16.6492 28.1754 19.2546 26.1575 22.2942 26.1575C26.8536 26.1575 30.1103 30.7164 28.8077 35.2006Z" fill="black"/>
<path d="M100.816 34.3789C100.816 53.3621 85.907 68.7579 67.5246 68.7579H42.2669L38.4312 85.9474C38.0694 87.6663 36.5495 88.8621 34.885 88.8621H33.1481C27.3583 88.8621 23.016 83.2568 24.3187 77.4274L26.2728 68.7579L28.8782 56.9495C29.4571 54.1842 31.8454 52.2411 34.5231 52.2411H57.6821C59.7809 52.2411 61.6625 50.8958 62.3139 48.8779C62.4586 48.3547 62.531 47.8316 62.531 47.3832C62.531 44.7674 60.5046 42.5253 57.8268 42.5253H41.9774C38.1417 42.5253 35.0297 39.6853 34.306 36.1726C34.0889 35.0516 34.0165 33.8558 34.306 32.66V32.5853V32.4358C35.1745 28.6989 38.3588 26.0832 42.0498 26.0832H63.5442C65.5706 26.0832 67.5246 24.8126 68.176 22.7947C68.3207 22.2716 68.4655 21.7484 68.4655 21.1505C68.4655 18.5347 66.4391 16.2926 63.7613 16.2926H7.96273C2.60723 16.4421 -1.22847 11.0611 0.363703 5.82947C1.37691 2.31684 4.48889 0 7.96273 0H67.5246C85.907 0 100.816 15.3958 100.816 34.3789Z" fill="black"/>
</mask>
<g mask="url(#mask0_322_932)">
<path d="M-17.9272 118.482L-17.9273 -2.46977L111.148 -2.46977L111.148 118.482L-17.9272 118.482Z" fill="url(#paint0_radial_322_932)"/>
</g>
<defs>
<radialGradient id="paint0_radial_322_932" cx="0" cy="0" r="1" gradientUnits="userSpaceOnUse" gradientTransform="translate(4.26179 64.5116) rotate(-36.3081) scale(91.6771 84.0309)">
<stop stop-color="#85EAFF"/>
<stop offset="0.706211" stop-color="#DADADA"/>
<stop offset="1" stop-color="#FFCB80"/>
</radialGradient>
</defs>
</svg>
