<svg width="113" height="28" viewBox="0 0 113 28" fill="none" xmlns="http://www.w3.org/2000/svg">
<path d="M9.07645 22.9186C8.74839 21.0377 7.41426 18.6756 4.87723 16.7728C3.63058 15.8324 2.36206 15.22 1.11542 14.9575V14.039C3.58684 13.4485 6.01452 11.7863 7.56736 9.53355C8.35471 8.39626 8.85774 7.28084 9.07645 6.12168H9.99503C10.3668 8.33065 12.0728 10.7802 14.3911 12.4205C15.5284 13.2297 16.7094 13.7765 17.9123 14.039V14.9575C15.4846 15.4606 12.6633 17.6258 11.2635 19.8348C10.5637 20.9502 10.1481 21.9781 9.99503 22.9186H9.07645Z" fill="white"/>
<path d="M25.6814 8.70442V7.70057C25.6814 7.40868 25.7775 7.16661 25.9697 6.97439C26.1619 6.78216 26.404 6.68605 26.6959 6.68605H40.2478C40.5397 6.68605 40.7817 6.78216 40.9739 6.97439C41.1662 7.16661 41.2623 7.40868 41.2623 7.70057V8.70442C41.2623 8.99631 41.1662 9.23838 40.9739 9.4306C40.7817 9.61571 40.5397 9.70826 40.2478 9.70826H35.4848V21.0175C35.4848 21.2952 35.3852 21.5301 35.1858 21.7223C34.9936 21.9074 34.7587 22 34.481 22H32.4626C32.185 22 31.9465 21.9074 31.7471 21.7223C31.5549 21.5301 31.4588 21.2952 31.4588 21.0175V9.70826H26.6959C26.404 9.70826 26.1619 9.61571 25.9697 9.4306C25.7775 9.23838 25.6814 8.99631 25.6814 8.70442ZM42.736 20.6758C41.6254 19.6506 41.0701 18.1413 41.0701 16.1478C41.0701 14.1472 41.6254 12.6379 42.736 11.6198C43.8466 10.5946 45.4414 10.082 47.5203 10.082C49.6063 10.082 51.2046 10.5946 52.3152 11.6198C53.4259 12.6379 53.9812 14.1472 53.9812 16.1478C53.9812 18.1413 53.4259 19.6506 52.3152 20.6758C51.2046 21.701 49.6063 22.2136 47.5203 22.2136C45.4414 22.2136 43.8466 21.701 42.736 20.6758ZM45.4378 13.3712C44.9964 13.9479 44.7757 14.8699 44.7757 16.1371C44.7757 17.4044 44.9964 18.3299 45.4378 18.9137C45.8793 19.4975 46.5734 19.7894 47.5203 19.7894C48.4743 19.7894 49.172 19.4975 49.6134 18.9137C50.0619 18.3299 50.2862 17.4044 50.2862 16.1371C50.2862 14.8699 50.0619 13.9479 49.6134 13.3712C49.172 12.7945 48.4743 12.5062 47.5203 12.5062C46.5734 12.5062 45.8793 12.7945 45.4378 13.3712ZM56.9607 20.6758C55.8501 19.6506 55.2947 18.1413 55.2947 16.1478C55.2947 14.1472 55.8501 12.6379 56.9607 11.6198C58.0713 10.5946 59.6661 10.082 61.745 10.082C63.831 10.082 65.4293 10.5946 66.5399 11.6198C67.6505 12.6379 68.2059 14.1472 68.2059 16.1478C68.2059 18.1413 67.6505 19.6506 66.5399 20.6758C65.4293 21.701 63.831 22.2136 61.745 22.2136C59.6661 22.2136 58.0713 21.701 56.9607 20.6758ZM59.6625 13.3712C59.2211 13.9479 59.0004 14.8699 59.0004 16.1371C59.0004 17.4044 59.2211 18.3299 59.6625 18.9137C60.1039 19.4975 60.7981 19.7894 61.745 19.7894C62.699 19.7894 63.3967 19.4975 63.8381 18.9137C64.2866 18.3299 64.5109 17.4044 64.5109 16.1371C64.5109 14.8699 64.2866 13.9479 63.8381 13.3712C63.3967 12.7945 62.699 12.5062 61.745 12.5062C60.7981 12.5062 60.1039 12.7945 59.6625 13.3712ZM70.1815 21.3486V7.34816C70.1815 7.15593 70.242 6.99931 70.3631 6.87828C70.4912 6.75013 70.6478 6.68605 70.8329 6.68605H73.2251C73.4102 6.68605 73.5633 6.75013 73.6843 6.87828C73.8124 6.99931 73.8765 7.15593 73.8765 7.34816V21.3486C73.8765 21.5337 73.8124 21.6903 73.6843 21.8185C73.5633 21.9395 73.4102 22 73.2251 22H70.8329C70.6478 22 70.4912 21.9395 70.3631 21.8185C70.242 21.6903 70.1815 21.5337 70.1815 21.3486ZM82.0781 19.6826L83.5412 19.5545H83.9363C84.1285 19.5545 84.2852 19.615 84.4062 19.736C84.5343 19.857 84.5984 20.0137 84.5984 20.2059V21.3486C84.5984 21.5052 84.5343 21.6476 84.4062 21.7757C84.2852 21.8968 84.1285 21.9715 83.9363 22C83.2101 22.1424 82.2632 22.2136 81.0956 22.2136C78.0343 22.2136 76.5036 20.6117 76.5036 17.408V7.34816C76.5036 7.15593 76.5641 6.99931 76.6851 6.87828C76.8133 6.75013 76.9699 6.68605 77.155 6.68605H79.5472C79.7323 6.68605 79.8853 6.75013 80.0064 6.87828C80.1345 6.99931 80.1986 7.15593 80.1986 7.34816V10.915H83.1781C83.3632 10.915 83.5163 10.9755 83.6373 11.0966C83.7654 11.2176 83.8295 11.3742 83.8295 11.5664V12.8373C83.8295 13.0295 83.7654 13.1861 83.6373 13.3071C83.5163 13.4282 83.3632 13.4887 83.1781 13.4887H80.1986V17.408C80.1986 18.1341 80.3695 18.6966 80.7112 19.0953C81.0529 19.4868 81.5086 19.6826 82.0781 19.6826ZM86.3498 8.06367V7.70057C86.3498 7.32324 86.4566 7.02422 86.6702 6.80352C86.8909 6.58282 87.1935 6.47247 87.5779 6.47247H88.9021C89.2795 6.47247 89.5785 6.58282 89.7992 6.80352C90.0199 7.01711 90.1302 7.31612 90.1302 7.70057V8.06367C90.1302 8.441 90.0199 8.74001 89.7992 8.96072C89.5856 9.18142 89.2866 9.29177 88.9021 9.29177H87.5779C87.2006 9.29177 86.9016 9.18142 86.6809 8.96072C86.4601 8.74001 86.3498 8.441 86.3498 8.06367ZM86.3925 21.3486V11.214C86.3925 11.0218 86.453 10.8652 86.5741 10.7441C86.7022 10.6231 86.8588 10.5626 87.0439 10.5626H89.4361C89.6283 10.5626 89.7849 10.6267 89.906 10.7548C90.027 10.8759 90.0875 11.0289 90.0875 11.214V21.3486C90.0875 21.5408 90.0234 21.6974 89.8953 21.8185C89.7743 21.9395 89.6212 22 89.4361 22H87.0439C86.8517 22 86.6951 21.9395 86.5741 21.8185C86.453 21.6974 86.3925 21.5408 86.3925 21.3486ZM92.7573 24.9475V10.9577C92.7573 10.7655 92.8178 10.6089 92.9389 10.4878C93.067 10.3597 93.2236 10.2956 93.4087 10.2956H95.4698C95.6549 10.2956 95.808 10.3597 95.929 10.4878C96.0572 10.6089 96.1213 10.7655 96.1213 10.9577V11.2781C97.2461 10.4807 98.5525 10.082 100.041 10.082C101.528 10.082 102.771 10.6089 103.768 11.6626C104.764 12.7091 105.263 14.2113 105.263 16.1692C105.263 18.1199 104.746 19.615 103.714 20.6544C102.682 21.6939 101.29 22.2136 99.5386 22.2136C98.6344 22.2136 97.6057 22.032 96.4523 21.6689V24.9475C96.4523 25.1397 96.3882 25.2963 96.2601 25.4173C96.1391 25.5455 95.986 25.6096 95.8009 25.6096H93.4087C93.2236 25.6096 93.067 25.5455 92.9389 25.4173C92.8178 25.2963 92.7573 25.1397 92.7573 24.9475ZM96.4523 19.2021C97.3707 19.494 98.1432 19.6399 98.7697 19.6399C99.7451 19.6399 100.436 19.3622 100.841 18.8069C101.254 18.2516 101.461 17.3652 101.461 16.1478C101.461 14.9304 101.265 14.0476 100.873 13.4994C100.489 12.9441 99.9088 12.6664 99.1328 12.6664C98.3639 12.6664 97.4704 12.9868 96.4523 13.6275V19.2021ZM109.556 18.5399C110.517 18.5399 110.997 19.0241 110.997 19.9923V20.6651C110.997 21.1136 110.873 21.466 110.624 21.7223C110.382 21.9786 110.026 22.1068 109.556 22.1068H108.242C107.772 22.1068 107.413 21.9786 107.164 21.7223C106.921 21.466 106.8 21.1136 106.8 20.6651V19.9923C106.8 19.5224 106.925 19.1629 107.174 18.9137C107.423 18.6645 107.779 18.5399 108.242 18.5399H109.556Z" fill="white"/>
</svg>
